<?xml version="1.0" encoding="iso-8859-1"?>
<!-- Generator: Adobe Illustrator 19.0.0, SVG Export Plug-In . SVG Version: 6.00 Build 0)  -->
<svg version="1.1" id="Layer_1" xmlns="http://www.w3.org/2000/svg" xmlns:xlink="http://www.w3.org/1999/xlink" x="0px" y="0px"
	 viewBox="0 0 512 512" style="enable-background:new 0 0 512 512;" xml:space="preserve">
<path style="fill:#E8E8E8;" d="M489.168,512H22.832C10.24,511.968,0.032,501.76,0,489.168V22.832C0.032,10.24,10.24,0.032,22.832,0
	H489.16c12.6,0.032,22.808,10.232,22.84,22.832V489.16C511.968,501.76,501.768,511.968,489.168,512z"/>
<circle style="fill:#303030;" cx="249.68" cy="256" r="184"/>
<circle cx="256" cy="256" r="206.336"/>
<circle cx="256" cy="256" r="184"/>
<path style="fill:#999999;" d="M256,443.248c-103.416,0.024-187.272-83.784-187.296-187.2
	c-0.024-103.416,83.784-187.272,187.2-187.296s187.272,83.784,187.296,187.2c0,0.016,0,0.032,0,0.048
	C443.088,359.344,359.344,443.104,256,443.248z M256,75.2C156.12,75.176,75.128,156.12,75.104,256s80.92,180.872,180.8,180.896
	s180.872-80.92,180.896-180.8c0-0.032,0-0.064,0-0.096C436.664,156.2,355.8,75.336,256,75.2z"/>
<circle style="fill:#E21B1B;" cx="256" cy="256" r="68.4"/>
<circle cx="40.4" cy="36.552" r="9.136"/>
<g>
	<circle style="fill:#AAAAAA;" cx="65.656" cy="36.552" r="9.136"/>
	<circle style="fill:#AAAAAA;" cx="90.904" cy="36.552" r="9.136"/>
</g>
<circle style="fill:#E21B1B;" cx="40.528" cy="442.08" r="9.136"/>
<circle style="fill:#AAAAAA;" cx="74.912" cy="442.08" r="9.136"/>
<rect x="31.4" y="463.008" width="73.064" height="8.952"/>
<g>
	<polygon style="fill:#AAAAAA;" points="351.248,367.184 335.176,356.704 424.448,219.784 424.448,53.416 443.648,53.416 
		443.648,225.488 	"/>
	<polygon style="fill:#AAAAAA;" points="397.08,296.952 340.144,384.176 321.416,346.544 355.088,294.96 	"/>
</g>
<polygon style="fill:#CCCBCA;" points="334.416,372.672 340.144,384.176 443.648,225.488 443.648,53.416 434.048,53.416 
	434.048,219.784 "/>
<circle style="fill:#AAAAAA;" cx="434.08" cy="64.64" r="37.208"/>
<circle cx="434.08" cy="64.64" r="20.408"/>
<g>
</g>
<g>
</g>
<g>
</g>
<g>
</g>
<g>
</g>
<g>
</g>
<g>
</g>
<g>
</g>
<g>
</g>
<g>
</g>
<g>
</g>
<g>
</g>
<g>
</g>
<g>
</g>
<g>
</g>
</svg>
