<?xml version="1.0" encoding="iso-8859-1"?>
<!-- Generator: Adobe Illustrator 19.0.0, SVG Export Plug-In . SVG Version: 6.00 Build 0)  -->
<svg version="1.1" id="Layer_1" xmlns="http://www.w3.org/2000/svg" xmlns:xlink="http://www.w3.org/1999/xlink" x="0px" y="0px"
	 viewBox="0 0 512 512" style="enable-background:new 0 0 512 512;" xml:space="preserve">
<path style="fill:#B169BF;" d="M8.294,96.76V415.24h495.413V96.76H8.294z M114.454,264.847c-9.772,0-17.693-7.921-17.693-17.693
	s7.921-17.693,17.693-17.693s17.693,7.921,17.693,17.693S124.226,264.847,114.454,264.847z M397.546,264.847
	c-9.772,0-17.693-7.921-17.693-17.693s7.921-17.693,17.693-17.693c9.772,0,17.693,7.921,17.693,17.693
	S407.319,264.847,397.546,264.847z"/>
<g>
	<path style="fill:#844A8F;" d="M432.933,229.46c0-9.772-7.921-17.693-17.693-17.693c-9.772,0-17.693,7.921-17.693,17.693
		c9.772,0,17.693,7.921,17.693,17.693C425.012,247.153,432.933,239.232,432.933,229.46z"/>
	<path style="fill:#844A8F;" d="M149.84,229.46c0-9.772-7.921-17.693-17.693-17.693s-17.693,7.921-17.693,17.693
		c9.772,0,17.693,7.921,17.693,17.693C141.919,247.153,149.84,239.232,149.84,229.46z"/>
	<polygon style="fill:#844A8F;" points="25.987,397.546 25.987,96.76 8.294,96.76 8.294,415.24 503.706,415.24 503.706,397.546 	"/>
</g>
<polygon style="fill:#4E5058;" points="114.454,344.467 397.546,344.467 432.933,415.24 79.067,415.24 "/>
<polygon style="fill:#383A43;" points="87.914,397.546 79.067,415.24 432.933,415.24 424.086,397.546 "/>
<path style="fill:#FD5E95;" d="M441.78,96.76H70.22l-26.54,35.387v185.78H468.32v-185.78L441.78,96.76z M114.454,264.847
	c-9.772,0-17.693-7.921-17.693-17.693s7.921-17.693,17.693-17.693s17.693,7.921,17.693,17.693S124.226,264.847,114.454,264.847z
	 M397.546,264.847c-9.772,0-17.693-7.921-17.693-17.693s7.921-17.693,17.693-17.693c9.772,0,17.693,7.921,17.693,17.693
	S407.319,264.847,397.546,264.847z"/>
<rect x="43.68" y="300.233" style="fill:#F9D84E;" width="424.639" height="17.693"/>
<g>
	<path style="fill:#D3D3D5;" d="M397.546,202.92c-24.429,0-44.233,19.804-44.233,44.233s19.804,44.233,44.233,44.233
		s44.233-19.804,44.233-44.233S421.975,202.92,397.546,202.92z M397.546,264.847c-9.772,0-17.693-7.921-17.693-17.693
		s7.921-17.693,17.693-17.693c9.772,0,17.693,7.921,17.693,17.693S407.319,264.847,397.546,264.847z"/>
	<path style="fill:#D3D3D5;" d="M70.22,247.153c0,24.429,19.804,44.233,44.233,44.233s44.233-19.804,44.233-44.233
		s-19.804-44.233-44.233-44.233S70.22,222.724,70.22,247.153z M96.76,247.153c0-9.772,7.921-17.693,17.693-17.693
		s17.693,7.921,17.693,17.693s-7.921,17.693-17.693,17.693S96.76,256.926,96.76,247.153z"/>
</g>
<rect x="194.073" y="211.767" style="fill:#A7A7AB;" width="123.853" height="70.773"/>
<rect x="194.073" y="211.767" style="fill:#D3D3D5;" width="123.853" height="70.773"/>
<g>
	<polygon style="fill:#A7A7AB;" points="194.073,211.767 194.073,282.54 209.555,282.54 280.328,211.767 	"/>
	<polygon style="fill:#A7A7AB;" points="308.527,211.767 237.754,282.54 274.246,282.54 317.927,238.86 317.927,211.767 	"/>
	<polygon style="fill:#A7A7AB;" points="291.94,282.54 317.927,282.54 317.927,256.553 	"/>
</g>
<path style="fill:#64666D;" d="M220.613,247.153c0,12.409-2.136,24.317-6.049,35.387h36.977c2.911-11.31,4.46-23.167,4.46-35.387
	s-1.548-24.076-4.46-35.387h-36.977C218.477,222.836,220.613,234.745,220.613,247.153z"/>
<path style="fill:#7A7C82;" d="M256,247.153c0-3.583-0.149-7.132-0.41-10.648l-38.766,38.766c-0.673,2.457-1.417,4.886-2.258,7.268
	h23.188l17.067-17.067C255.596,259.476,256,253.361,256,247.153z"/>
<circle style="fill:#F9D84E;" cx="419.663" cy="154.263" r="22.117"/>
<path d="M503.706,88.467H8.294C3.713,88.467,0,92.18,0,96.76V415.24c0,4.58,3.713,8.294,8.294,8.294h495.413
	c4.58,0,8.294-3.713,8.294-8.294V96.76C512,92.18,508.287,88.467,503.706,88.467z M92.486,406.946l27.093-54.186H392.42
	l27.093,54.186H92.486z M495.413,406.946h-57.354l-33.094-66.188c-1.404-2.81-4.276-4.585-7.418-4.585H114.454
	c-3.142,0-6.014,1.775-7.418,4.585l-33.094,66.188H16.587V105.054h37.045l-16.587,22.117c-1.077,1.435-1.659,3.181-1.659,4.976
	v185.78c0,4.58,3.713,8.294,8.294,8.294h106.16c4.58,0,8.294-3.713,8.294-8.294s-3.713-8.294-8.294-8.294H51.974V134.911
	l22.393-29.857h363.266l22.393,29.857v174.721H185.227c-4.58,0-8.294,3.713-8.294,8.294s3.713,8.294,8.294,8.294H468.32
	c4.58,0,8.294-3.713,8.294-8.294v-185.78c0-1.795-0.582-3.541-1.659-4.976l-16.587-22.117h37.045V406.946z"/>
<path d="M310.186,371.559h-1.106c-4.58,0-8.294,3.713-8.294,8.294s3.713,8.294,8.294,8.294h1.106c4.58,0,8.294-3.713,8.294-8.294
	S314.766,371.559,310.186,371.559z"/>
<path d="M353.313,380.406h-1.106c-4.58,0-8.294,3.713-8.294,8.294s3.713,8.294,8.294,8.294h1.106c4.58,0,8.294-3.713,8.294-8.294
	S357.894,380.406,353.313,380.406z"/>
<path d="M202.92,371.559h-1.106c-4.58,0-8.294,3.713-8.294,8.294s3.713,8.294,8.294,8.294h1.106c4.58,0,8.294-3.713,8.294-8.294
	S207.5,371.559,202.92,371.559z"/>
<path d="M159.793,380.406h-1.106c-4.58,0-8.294,3.713-8.294,8.294s3.713,8.294,8.294,8.294h1.106c4.58,0,8.294-3.713,8.294-8.294
	S164.373,380.406,159.793,380.406z"/>
<path d="M257.106,362.713H256c-4.58,0-8.294,3.713-8.294,8.294S251.42,379.3,256,379.3h1.106c4.58,0,8.294-3.713,8.294-8.294
	S261.686,362.713,257.106,362.713z"/>
<path d="M397.546,194.626c-28.963,0-52.527,23.564-52.527,52.527c0,28.963,23.564,52.527,52.527,52.527
	c28.963,0,52.527-23.564,52.527-52.527C450.073,218.191,426.509,194.626,397.546,194.626z M397.546,283.093
	c-19.816,0-35.94-16.123-35.94-35.94s16.123-35.94,35.94-35.94c19.817,0,35.94,16.123,35.94,35.94S417.363,283.093,397.546,283.093z
	"/>
<path d="M397.546,221.166c-14.329,0-25.987,11.658-25.987,25.987c0,14.329,11.658,25.987,25.987,25.987s25.987-11.658,25.987-25.987
	C423.533,232.824,411.876,221.166,397.546,221.166z M397.546,256.553c-5.183,0-9.4-4.217-9.4-9.4s4.217-9.4,9.4-9.4
	s9.4,4.217,9.4,9.4S402.729,256.553,397.546,256.553z"/>
<path d="M114.454,221.166c-14.329,0-25.987,11.658-25.987,25.987c0,14.329,11.658,25.987,25.987,25.987s25.987-11.658,25.987-25.987
	C140.441,232.824,128.783,221.166,114.454,221.166z M114.454,256.553c-5.183,0-9.4-4.217-9.4-9.4s4.217-9.4,9.4-9.4
	s9.4,4.217,9.4,9.4S119.637,256.553,114.454,256.553z"/>
<path d="M114.454,194.626c-28.963,0-52.527,23.564-52.527,52.527c0,28.963,23.564,52.527,52.527,52.527s52.527-23.564,52.527-52.527
	C166.981,218.191,143.416,194.626,114.454,194.626z M114.454,283.093c-19.816,0-35.94-16.123-35.94-35.94s16.123-35.94,35.94-35.94
	s35.94,16.123,35.94,35.94S134.27,283.093,114.454,283.093z"/>
<path d="M317.927,203.473H194.073c-4.58,0-8.294,3.713-8.294,8.294v70.773c0,4.58,3.713,8.294,8.294,8.294h123.853
	c4.58,0,8.294-3.713,8.294-8.294v-70.773C326.22,207.186,322.507,203.473,317.927,203.473z M202.367,220.06h6.127
	c2.527,8.778,3.825,17.862,3.825,27.093c0,9.23-1.298,18.315-3.825,27.093h-6.127V220.06z M225.675,274.246
	c2.149-8.832,3.232-17.905,3.232-27.093c0-9.188-1.084-18.261-3.232-27.093h19.277c1.83,8.871,2.756,17.958,2.756,27.093
	s-0.926,18.222-2.756,27.093H225.675z M309.633,274.246h-47.8c1.626-8.904,2.46-17.978,2.46-27.093
	c0-9.115-0.835-18.189-2.46-27.093h47.8V274.246z"/>
<path d="M149.84,149.287h212.32c4.58,0,8.294-3.713,8.294-8.294s-3.713-8.294-8.294-8.294H149.84c-4.58,0-8.294,3.713-8.294,8.294
	S145.26,149.287,149.84,149.287z"/>
<path d="M149.84,184.674h212.32c4.58,0,8.294-3.713,8.294-8.294s-3.713-8.294-8.294-8.294H149.84c-4.58,0-8.294,3.713-8.294,8.294
	S145.26,184.674,149.84,184.674z"/>
<path d="M65.953,183.492c3.93,2.358,9.024,1.083,11.379-2.844l2.892-4.82h33.072l2.892,4.82c2.509,4.181,8.263,5.283,12.145,2.326
	c3.318-2.526,4.222-7.287,2.079-10.86l-26.54-44.233c-1.498-2.498-4.199-4.026-7.112-4.026c-2.913,0-5.613,1.528-7.112,4.026
	l-26.54,44.233C60.751,176.041,62.025,181.135,65.953,183.492z M96.76,148.267l6.584,10.973H90.176L96.76,148.267z"/>
<path d="M419.663,184.674c16.769,0,30.41-13.642,30.41-30.41s-13.642-30.41-30.41-30.41s-30.41,13.642-30.41,30.41
	S402.894,184.674,419.663,184.674z M419.663,140.441c7.622,0,13.823,6.2,13.823,13.823c0,7.623-6.2,13.823-13.823,13.823
	s-13.823-6.2-13.823-13.823C405.84,146.641,412.041,140.441,419.663,140.441z"/>
<g>
</g>
<g>
</g>
<g>
</g>
<g>
</g>
<g>
</g>
<g>
</g>
<g>
</g>
<g>
</g>
<g>
</g>
<g>
</g>
<g>
</g>
<g>
</g>
<g>
</g>
<g>
</g>
<g>
</g>
</svg>
