<?xml version="1.0" encoding="iso-8859-1"?>
<!-- Generator: Adobe Illustrator 19.0.0, SVG Export Plug-In . SVG Version: 6.00 Build 0)  -->
<svg version="1.1" id="Layer_1" xmlns="http://www.w3.org/2000/svg" xmlns:xlink="http://www.w3.org/1999/xlink" x="0px" y="0px"
	 viewBox="0 0 512 512" style="enable-background:new 0 0 512 512;" xml:space="preserve">
<g>
	<path style="fill:#EBECEC;" d="M393.897,313.379c29.431-32.812,47.484-76.041,47.484-123.586
		c0-102.382-82.997-185.379-185.379-185.379S70.622,87.411,70.622,189.793c0,47.545,18.052,90.774,47.484,123.586H393.897z"/>
	<path style="fill:#464F5D;" d="M494.345,472.276H17.655C7.901,472.276,0,464.375,0,454.621V331.034
		c0-9.754,7.901-17.655,17.655-17.655h476.69c9.754,0,17.655,7.901,17.655,17.655v123.586
		C512,464.375,504.099,472.276,494.345,472.276"/>
	<path style="fill:#AFB8BC;" d="M256,260.414c-38.938,0-70.621-31.682-70.621-70.621s31.682-70.621,70.621-70.621
		s70.621,31.682,70.621,70.621S294.938,260.414,256,260.414"/>
	<path style="fill:#FFFFFF;" d="M256,216.276c-14.601,0-26.483-11.882-26.483-26.483c0-14.601,11.882-26.483,26.483-26.483
		s26.483,11.882,26.483,26.483C282.483,204.394,270.601,216.276,256,216.276"/>
	<g>
		<polygon style="fill:#2C2F38;" points="35.31,401.655 158.897,401.655 158.897,348.69 35.31,348.69 		"/>
		<path style="fill:#2C2F38;" d="M158.897,445.793H35.31c-4.873,0-8.828-3.955-8.828-8.828s3.955-8.828,8.828-8.828h123.586
			c4.873,0,8.828,3.955,8.828,8.828S163.769,445.793,158.897,445.793"/>
		<path style="fill:#2C2F38;" d="M476.69,375.172c0-14.627-11.855-26.483-26.483-26.483c-14.627,0-26.483,11.855-26.483,26.483
			c0,14.627,11.855,26.483,26.483,26.483C464.834,401.655,476.69,389.8,476.69,375.172"/>
		<path style="fill:#2C2F38;" d="M388.414,375.172c0-14.627-11.855-26.483-26.483-26.483s-26.483,11.855-26.483,26.483
			c0,14.627,11.855,26.483,26.483,26.483S388.414,389.8,388.414,375.172"/>
		<path style="fill:#2C2F38;" d="M300.138,375.172c0-14.627-11.855-26.483-26.483-26.483s-26.483,11.855-26.483,26.483
			c0,14.627,11.855,26.483,26.483,26.483S300.138,389.8,300.138,375.172"/>
	</g>
	<g>
		<path style="fill:#AFB8BC;" d="M159.401,83.866c-2.516,0-5.005-1.068-6.753-3.134c-3.143-3.725-2.666-9.304,1.059-12.447
			c28.593-24.108,64.918-37.385,102.294-37.385c4.873,0,8.828,3.946,8.828,8.828c0,4.873-3.955,8.828-8.828,8.828
			c-33.209,0-65.501,11.794-90.915,33.236C163.435,83.187,161.413,83.866,159.401,83.866"/>
		<path style="fill:#AFB8BC;" d="M105.931,198.621c-4.873,0-8.828-3.955-8.828-8.828c0-33.836,10.54-66.163,30.473-93.475
			c2.878-3.946,8.395-4.802,12.332-1.933c3.937,2.878,4.802,8.404,1.924,12.332c-17.708,24.276-27.074,53.001-27.074,83.076
			C114.759,194.666,110.804,198.621,105.931,198.621"/>
		<path style="fill:#AFB8BC;" d="M144.332,172.138c-0.68,0-1.359-0.079-2.048-0.238c-4.74-1.121-7.68-5.879-6.55-10.628
			c11.476-48.375,52.162-85.99,101.261-93.599c4.793-0.733,9.331,2.551,10.072,7.362c0.75,4.82-2.551,9.34-7.371,10.081
			c-42.072,6.524-76.95,38.762-86.784,80.234C151.95,169.401,148.331,172.138,144.332,172.138"/>
	</g>
	<g>
		<path style="fill:#EBECEC;" d="M361.931,375.172c-4.873,0-8.828-3.955-8.828-8.828V348.69c0-4.873,3.955-8.828,8.828-8.828
			s8.828,3.955,8.828,8.828v17.655C370.759,371.218,366.804,375.172,361.931,375.172"/>
		<path style="fill:#EBECEC;" d="M441.379,384h-17.655c-4.873,0-8.828-3.955-8.828-8.828c0-4.873,3.955-8.828,8.828-8.828h17.655
			c4.873,0,8.828,3.955,8.828,8.828C450.207,380.045,446.252,384,441.379,384"/>
		<path style="fill:#EBECEC;" d="M292.375,402.72c-2.26,0-4.52-0.865-6.241-2.587l-9.896-9.896c-3.443-3.443-3.443-9.031,0-12.482
			c3.452-3.443,9.039-3.443,12.482,0l9.896,9.896c3.452,3.452,3.452,9.031,0,12.482C296.895,401.855,294.635,402.72,292.375,402.72"
			/>
	</g>
	<path style="fill:#E64C3C;" d="M300.138,445.793h-52.966c-4.873,0-8.828-3.955-8.828-8.828s3.955-8.828,8.828-8.828h52.966
		c4.873,0,8.828,3.955,8.828,8.828S305.011,445.793,300.138,445.793"/>
	<path style="fill:#26B99A;" d="M388.414,445.793h-52.966c-4.873,0-8.828-3.955-8.828-8.828s3.955-8.828,8.828-8.828h52.966
		c4.873,0,8.828,3.955,8.828,8.828S393.287,445.793,388.414,445.793"/>
	<path style="fill:#F0C419;" d="M476.69,445.793h-52.966c-4.873,0-8.828-3.955-8.828-8.828s3.955-8.828,8.828-8.828h52.966
		c4.873,0,8.828,3.955,8.828,8.828S481.562,445.793,476.69,445.793"/>
	<g>
		<path style="fill:#2C2F38;" d="M105.931,507.586h-35.31c-19.5,0-35.31-15.81-35.31-35.31l0,0h105.931l0,0
			C141.241,491.776,125.431,507.586,105.931,507.586"/>
		<path style="fill:#2C2F38;" d="M406.069,507.586h35.31c19.5,0,35.31-15.81,35.31-35.31l0,0H370.759l0,0
			C370.759,491.776,386.569,507.586,406.069,507.586"/>
	</g>
</g>
<g>
</g>
<g>
</g>
<g>
</g>
<g>
</g>
<g>
</g>
<g>
</g>
<g>
</g>
<g>
</g>
<g>
</g>
<g>
</g>
<g>
</g>
<g>
</g>
<g>
</g>
<g>
</g>
<g>
</g>
</svg>
